<svg width="356" height="200" viewBox="0 0 356 200" fill="none" xmlns="http://www.w3.org/2000/svg">
<g clip-path="url(#clip0_1773_6743)">
<path d="M188.657 30.0167C185.359 33.3728 182.003 35.0727 180.259 35.0727C178.705 35.0727 177.935 33.7651 178.85 29.8714L181.32 19.2799C181.712 17.6236 181.509 16.8972 180.928 16.8972C179.373 16.8972 175.581 20.8345 173.402 24.4812C172.777 27.0092 171.949 31.3824 171.513 33.9976C169.566 34.1429 167.576 34.6223 165.731 35.0727L165.44 34.6369C167.474 25.3529 169.464 15.4443 171.266 5.44843C168.593 5.20144 165.919 5.05615 162.767 5.05615H160.878L156.214 28.2296C155.488 32.1234 155.72 32.4575 159.948 32.8498L159.556 34.5061H144.446L144.78 32.8498C148.616 32.5157 148.964 32.1234 149.836 28.2296L154.892 5.05615H152.422C148.485 5.05615 147.366 5.49202 146.393 6.50904C145.564 7.43888 144.649 8.79006 143.618 10.9839H141.772C142.848 7.83116 143.719 4.32971 144.257 1.75811H145.623C146.102 2.87683 146.552 2.97853 147.86 2.97853H168.506C171.135 2.97853 171.658 2.78966 171.862 2.04869L171.963 1.56923C174.099 0.886379 176.525 0.0146484 177.31 0.0146484C177.993 0.0146484 178.036 0.406927 177.789 1.75811C176.525 8.07815 175.261 14.3837 173.954 20.7473H174.056C176.584 17.4492 179.489 15.0084 181.334 13.9042C182.744 13.0325 184.153 12.4949 185.315 12.4949C186.725 12.4949 188.381 13.2795 187.161 18.7133L184.981 28.433C184.647 29.944 184.734 30.3218 185.083 30.4235C185.475 30.4235 186.884 29.5518 187.945 28.5783L188.672 30.0312L188.657 30.0167Z" fill="white"/>
<path d="M210.276 28.9995C205.903 33.5616 202.212 35.0726 198.813 35.0726C195.994 35.0726 192.841 33.518 192.841 27.7791C192.841 23.2606 194.875 18.3499 198.522 15.5894C200.469 14.0348 203.767 12.4802 206.44 12.4802C209.884 12.4802 211.496 14.4271 211.496 16.7081C211.496 21.6624 203.869 24.0452 199.016 25.3528C198.972 25.8903 198.972 26.2826 198.972 26.6168C198.972 29.0867 199.902 31.1788 202.372 31.1788C204.261 31.1788 207.08 29.8131 209.361 27.6338L210.29 28.9995H210.276ZM204.305 14.7177C203.869 14.7177 203.288 14.9065 202.852 15.1971C201.733 15.9817 199.786 18.6405 199.205 23.5076C204.406 21.9094 206.15 19.919 206.15 17.2893C206.15 15.4005 204.929 14.7177 204.348 14.7177H204.305Z" fill="white"/>
<path d="M32.4138 65.8446C31.6147 63.1132 30.7575 61.021 29.5371 59.6553C28.0261 58.0717 26.0793 57.5632 22.0402 57.5632H18.4371C15.9236 57.5632 15.633 57.7085 15.633 60.0912V76.0148H21.4591C27.9389 76.0148 28.5927 75.361 29.4499 70.7553H32.0506V85.0808H29.4499C28.6509 80.1846 27.9389 79.6034 21.4591 79.6034H15.633V90.9795C15.633 97.7499 16.2142 98.1858 22.4761 98.6798V101.208H0V98.6798C5.25944 98.1712 5.98588 97.7499 5.98588 90.9795V64.4062C5.98588 57.9264 5.25944 57.4179 0 56.982V54.3813H34.1428C34.2154 55.6018 34.5786 61.1518 34.9418 65.3361L32.4138 65.8446Z" fill="white"/>
<path d="M65.8302 101.208V98.6799C70.0872 98.0261 70.4359 97.1689 69.2881 94.0017C68.5617 91.8369 67.4865 88.8149 66.4114 85.8655H52.5799C51.7809 88.103 50.851 90.6891 49.9793 93.5658C48.9768 97.0237 49.1076 98.0261 54.367 98.6799V101.208H38.24L38.3126 98.6799C43.0636 98.0988 43.9353 97.3142 46.3035 91.2557L61.0648 54.2362L64.7406 53.3064C69.3462 65.9174 73.8211 78.4413 78.4994 90.8344C80.9548 97.1689 81.8846 98.1133 86.4176 98.6799V101.208H65.8157H65.8302ZM59.7136 66.4986H59.4957C57.4762 71.758 55.6746 76.9448 53.8004 82.059H65.0312L59.6991 66.4986H59.7136Z" fill="white"/>
<path d="M129.365 66.7019C128.493 62.9534 127.491 60.5852 126.198 59.2776C124.977 57.9846 123.103 57.5487 118.919 57.5487H115.606V91.6188C115.606 97.7355 116.332 98.1713 122.667 98.6798V101.208H99.1884V98.6798C105.232 98.1713 105.959 97.75 105.959 91.6188V57.5487H103.503C97.6048 57.5487 96.2972 58.3478 95.222 59.4956C94.0742 60.716 93.1299 63.1714 92.2 66.7745H89.5994C89.8899 61.5151 90.3258 56.2556 90.4711 52.5798H92.2C93.3478 54.2361 94.2922 54.3814 96.3117 54.3814H125.268C127.215 54.3814 128.217 53.9455 129.452 52.5798H131.181C131.254 55.6018 131.617 61.9364 131.98 66.5566L129.394 66.7019H129.365Z" fill="white"/>
<path d="M192.536 56.9094C186.913 57.4179 186.492 57.8392 186.492 63.9704V91.7059C186.492 97.7499 187.073 98.1858 192.536 98.6943V101.222H170.568V98.6943C176.336 98.1858 176.83 97.6918 176.83 91.6333V78.2377H157.173V91.6333C157.173 97.7499 157.754 98.1858 163.072 98.6943V101.222H141.612V98.6943C146.872 98.1858 147.526 97.7644 147.526 91.6333V63.9704C147.526 57.8537 146.872 57.4179 141.336 56.9094V54.3813H162.941V56.9094C157.754 57.4179 157.173 57.8392 157.173 63.9704V74.5619H176.83V63.9704C176.83 57.8537 176.249 57.4179 170.917 56.9094V54.3813H192.521V56.9094H192.536Z" fill="white"/>
<path d="M241.382 89.2507C240.946 92.4906 239.435 99.0431 238.869 101.208H202.14V98.6799C208.256 98.1714 208.983 97.75 208.983 91.6189V63.956C208.983 57.694 208.256 57.3308 203.142 56.895V54.3669H237.067C237.14 55.66 237.503 60.7015 237.793 65.1764L235.207 65.5396C234.481 63.0261 233.551 60.6434 232.258 59.3503C231.037 58.0573 229.091 57.5488 225.052 57.5488H221.594C218.935 57.5488 218.644 57.694 218.644 60.0768V75.3466H223.468C229.512 75.3466 230.456 74.9834 231.459 69.9419H234.059V84.4852H231.459C230.456 79.2984 229.585 79.0078 223.468 79.0078H218.644V91.4736C218.644 94.8588 218.935 96.6604 220.373 97.3723C221.666 97.9534 224.122 98.0987 226.853 98.0987C230.529 98.0987 233.115 97.5902 234.844 95.7886C236.21 94.205 237.503 91.8949 238.883 88.7276L241.397 89.2361L241.382 89.2507Z" fill="white"/>
<path d="M294.253 101.847C293.817 101.847 292.959 101.775 292.088 101.775C283.007 101.339 280.203 99.3192 277.326 94.7862C275.452 91.8368 273.505 87.9431 271.413 84.1946C270.265 81.9572 268.972 81.1 266.662 81.0274H265.297V91.5462C265.297 97.4449 266.023 98.1714 271.413 98.6799V101.208H249.664V98.6799C255.068 98.1714 255.853 97.4595 255.853 91.5462V63.8833C255.853 58.1154 255.199 57.4035 249.94 56.895V54.3669H270.178C276.44 54.3669 280.116 55.0934 282.993 57.0984C285.869 58.9726 287.889 62.2125 287.889 66.6729C287.889 73.0074 283.705 76.3927 278.881 78.4122C279.884 80.5043 282.63 85.3279 284.707 88.6405C287.308 92.6068 288.819 94.9024 290.257 96.4134C291.841 98.0697 292.989 98.9414 294.645 99.508L294.209 101.818L294.253 101.847ZM267.171 78.2233C270.193 78.2233 272.648 77.7148 274.232 76.2764C276.687 74.2569 277.69 71.3802 277.69 67.7044C277.69 60.0768 273.229 57.2582 269.19 57.2582C267.389 57.2582 266.386 57.5488 265.95 57.9846C265.442 58.4205 265.297 59.1324 265.297 60.6434V78.2233H267.171Z" fill="white"/>
<path d="M24.5247 136.28C32.2976 137.21 37.4553 140.363 37.4553 146.727C37.4553 151.216 34.9709 154.703 31.1498 156.781C27.7355 158.727 22.5778 159.657 17.0133 159.657H0V157.318C5.15774 156.853 5.76795 156.388 5.76795 150.678V125.079C5.76795 119.383 5.15774 118.918 0.406807 118.439V116.1H19.9771C25.1349 116.1 28.491 116.768 31.0336 118.439C33.518 120.052 34.9854 122.725 34.9854 126.081C34.9854 132.445 29.3628 135.06 24.5247 136.004V136.266V136.28ZM16.1415 135.336C22.5778 135.336 25.4545 132.793 25.4545 127.229C25.4545 121.199 21.8368 118.918 18.2192 118.918C16.7517 118.918 15.604 119.325 15.1972 119.718C14.7322 120.182 14.6015 121.185 14.6015 122.594V135.321H16.1415V135.336ZM14.6015 150.548C14.6015 155.502 15.9381 156.911 19.4977 156.853C23.2461 156.781 27.474 154.035 27.474 147.468C27.474 140.901 23.5948 138.024 15.9527 138.024H14.616V150.562L14.6015 150.548Z" fill="white"/>
<path d="M94.0307 137.414C94.0307 151.884 83.6426 160.674 71.0461 160.674C57.6505 160.674 48.323 150.824 48.323 137.951C48.323 126.43 56.5027 115.097 71.8452 115.097C84.0349 115.097 94.0307 124.149 94.0307 137.414ZM58.5804 136.673C58.5804 148.136 63.68 157.856 72.252 157.856C78.6156 157.856 83.7734 151.623 83.7734 139.288C83.7734 125.95 78.3396 117.916 70.6393 117.916C63.8689 117.916 58.5804 125.093 58.5804 136.673Z" fill="white"/>
<path d="M149.385 118.454C145.695 118.657 144.024 120.066 143.69 122.405C143.356 124.483 143.094 126.968 143.094 131.718V139.026C143.094 146.131 142.019 151.754 138.271 155.778C135.191 158.989 130.629 160.674 125.878 160.674C121.461 160.674 117.233 159.73 114.022 157.188C110.201 154.238 108.458 149.284 108.458 141.438V125.689C108.458 119.383 107.789 118.919 102.835 118.454V116.115H123.001V118.454C118.105 118.919 117.436 119.383 117.436 125.689V140.232C117.436 150.286 121.054 156.112 128.289 156.112C136.266 156.112 139.753 150.083 139.753 138.896V131.718C139.753 126.968 139.419 124.41 139.084 122.405C138.75 120.066 137.138 118.715 132.59 118.454V116.115H149.414V118.454H149.385Z" fill="white"/>
<path d="M198.246 160.268C197.839 160.268 197.04 160.195 196.241 160.195C187.8 159.788 185.185 157.914 182.497 153.701C180.753 150.955 178.952 147.337 177.005 143.85C175.93 141.772 174.724 140.973 172.588 140.901H171.309V150.679C171.309 156.17 171.978 156.839 177.005 157.318V159.657H156.766V157.318C161.793 156.853 162.534 156.185 162.534 150.679V124.948C162.534 119.587 161.938 118.919 157.042 118.454V116.115H175.872C181.698 116.115 185.112 116.783 187.8 118.657C190.488 120.401 192.362 123.423 192.362 127.563C192.362 133.462 188.468 136.615 183.979 138.489C184.908 140.436 187.466 144.925 189.412 148.005C191.824 151.696 193.233 153.831 194.57 155.241C196.038 156.781 197.113 157.58 198.653 158.117L198.246 160.268ZM173.053 138.286C175.872 138.286 178.153 137.821 179.62 136.469C181.901 134.595 182.831 131.907 182.831 128.493C182.831 121.388 178.676 118.773 174.927 118.773C173.256 118.773 172.312 119.035 171.92 119.442C171.455 119.848 171.309 120.517 171.309 121.926V138.271H173.053V138.286Z" fill="white"/>
<path d="M230.151 136.28C237.924 137.21 243.082 140.363 243.082 146.727C243.082 151.216 240.597 154.703 236.776 156.781C233.362 158.727 228.204 159.657 222.64 159.657H205.612V157.318C210.77 156.853 211.38 156.388 211.38 150.678V125.079C211.38 119.383 210.784 118.918 206.019 118.439V116.1H225.589C230.747 116.1 234.103 116.768 236.646 118.439C239.13 120.052 240.597 122.725 240.597 126.081C240.597 132.445 234.975 135.06 230.137 136.004V136.266L230.151 136.28ZM221.768 135.336C228.204 135.336 231.081 132.793 231.081 127.229C231.081 121.199 227.463 118.918 223.846 118.918C222.378 118.918 221.231 119.325 220.824 119.718C220.359 120.182 220.228 121.185 220.228 122.594V135.321H221.768V135.336ZM220.228 150.548C220.228 155.502 221.565 156.911 225.124 156.853C228.873 156.781 233.101 154.035 233.101 147.468C233.101 140.901 229.221 138.024 221.579 138.024H220.243V150.562L220.228 150.548Z" fill="white"/>
<path d="M299.657 137.414C299.657 151.884 289.269 160.674 276.673 160.674C263.277 160.674 253.949 150.824 253.949 137.951C253.949 126.43 262.129 115.097 277.472 115.097C289.661 115.097 299.657 124.149 299.657 137.414ZM264.207 136.673C264.207 148.136 269.306 157.856 277.878 157.856C284.242 157.856 289.4 151.623 289.4 139.288C289.4 125.95 283.966 117.916 276.266 117.916C269.495 117.916 264.207 125.093 264.207 136.673Z" fill="white"/>
<path d="M354.823 118.454C351.206 118.657 349.796 119.529 349.462 122.609C349.259 124.686 348.852 127.839 348.852 133.738V160.34H345.641L317.76 126.967H317.557V142.048C317.557 147.947 317.891 150.896 318.094 152.901C318.429 155.851 319.562 157.129 324.531 157.318V159.657H308.113V157.318C311.861 157.057 313.402 155.981 313.678 153.09C313.939 150.882 314.346 147.933 314.346 142.034V128.028C314.346 123.669 314.215 122.405 312.937 120.851C311.731 119.238 310.191 118.701 307.372 118.439V116.1H319.765L345.365 145.521H345.626V133.723C345.626 127.825 345.22 124.672 345.089 122.74C344.755 119.863 343.345 118.715 338.449 118.454V116.114H354.794V118.454H354.823Z" fill="white"/>
<path d="M323.514 68.9829C328.279 68.9829 330.705 72.0485 330.705 76.7122C330.705 80.9401 329.049 85.4586 325.562 88.4225C323.426 90.2677 320.274 91.5752 317.252 91.5752C311.426 91.5752 309.915 87.3038 309.915 83.5553C309.915 77.2353 313.503 72.6732 317.15 70.7264C319.14 69.7094 321.421 68.9829 323.47 68.9829H323.514ZM321.625 71.0751C321.291 71.0751 320.84 71.1186 320.462 71.3221C319.155 71.9468 316.235 76.0875 316.235 84.0493C316.235 87.7396 317.687 89.3959 319.155 89.3959C319.692 89.3959 319.939 89.3523 320.375 89.2071C322.264 88.437 324.458 83.3374 324.458 76.4798C324.458 72.6878 323.237 71.0896 321.683 71.0896H321.639L321.625 71.0751Z" fill="white"/>
<path d="M338.987 69.8112C339.96 65.8303 341.079 63.1134 343.462 60.7742C346.178 58.1445 349.389 56.8369 351.336 56.8369C353.719 56.8369 354.881 58.2026 354.838 59.3649C354.794 60.6289 353.762 61.7912 353.036 62.1835C352.557 62.4305 352.208 62.4741 351.728 61.9946C350.421 60.3965 349.302 59.4231 348.43 59.4231C347.457 59.3795 346.585 60.1931 345.031 69.8112H350.668L349.651 71.758L344.595 72.1503C343.767 76.5671 343.142 80.795 341.82 86.2869C339.931 94.3068 337.737 97.5031 334.337 100.322C332.303 102.022 330.444 102.85 328.991 102.85C327.393 102.85 325.736 101.775 325.736 100.525C325.78 99.4064 326.666 98.3458 327.48 97.7501C327.872 97.4159 328.163 97.3578 328.497 97.6048C329.47 98.5347 331.315 99.3047 332.289 99.3047C333.059 99.3047 333.553 98.9705 333.887 98.1424C334.134 97.4595 334.657 95.7597 335.921 88.0884C337.04 81.3906 337.723 76.9594 338.551 72.1503H334.657L334.41 71.6709L336.066 69.8257H338.987V69.8112Z" fill="white"/>
<path d="M0 17L114 17" stroke="white" stroke-width="4"/>
<path d="M0 197H356" stroke="white" stroke-width="4"/>
<path d="M239 17.3999L357 17.3999" stroke="white" stroke-width="4"/>
</g>
<defs>
<clipPath id="clip0_1773_6743">
<rect width="356" height="199.176" fill="white"/>
</clipPath>
</defs>
</svg>
