<svg width="209" height="42" viewBox="0 0 209 42" fill="none" xmlns="http://www.w3.org/2000/svg">
<g clip-path="url(#clip0_2801_4061)">
<path d="M23.1472 24.9439L21.6218 24.5263C20.9089 26.6865 20.1391 28.1699 19.3836 29.25C18.4426 30.4886 17.1454 30.8919 14.7646 30.8919C13.1536 30.8919 11.9418 30.791 11.2718 30.3302C10.559 29.9269 10.3309 28.7892 10.3309 26.384V17.0949H12.8827C16.4753 17.0949 16.8317 17.2533 17.5017 20.9402H19.0271V10.8734H17.5017C16.8317 14.4595 16.4183 14.6754 12.8827 14.6754H10.3166V3.90288C10.3166 2.20347 10.5019 2.05946 11.9276 2.05946H13.5385C16.2329 2.05946 17.4019 2.52032 18.0292 3.44202C18.6993 4.32054 19.1554 5.70311 19.5974 7.54654L21.1229 7.2873C20.9375 4.40695 20.7236 0.820902 20.6809 0H1.34946V1.69941C4.17219 2.00185 4.58562 2.26107 4.58562 6.4232V26.4417C4.58562 30.647 4.18644 30.9062 0.864746 31.2663V32.9657H21.7216C22.0637 31.4535 22.8764 26.8882 23.1472 24.9439Z" fill="white"/>
<path d="M20.6819 0C20.7247 0.820902 20.9528 4.40695 21.1238 7.2873L19.5985 7.54654C19.1565 5.70311 18.7003 4.32054 18.0303 3.44202C17.4031 2.52032 16.234 2.05946 13.5396 2.05946H11.9286C10.4888 2.05946 10.3177 2.21788 10.3177 3.90288V14.6754H12.8695C16.4193 14.6754 16.8186 14.4738 17.4885 10.8734H19.014V20.9257H17.4885C16.8186 17.2246 16.4621 17.0806 12.8695 17.0806H10.3177V26.3697C10.3177 28.7747 10.5458 29.9126 11.2586 30.3158C11.9286 30.7766 13.1404 30.8775 14.7513 30.8775C17.1321 30.8775 18.4295 30.4597 19.3703 29.2357C20.1402 28.1555 20.8958 26.6721 21.6086 24.5118L23.134 24.9296C22.8631 26.8737 22.0505 31.4535 21.6941 32.937H0.851562V31.2519C4.17326 30.8919 4.57243 30.6326 4.57243 26.4273V6.40879C4.57243 2.24668 4.17326 2.00185 1.33627 1.685V0H20.6819Z" fill="white"/>
<path d="M25.4434 10.686V27.4354C25.4434 30.9061 25.1439 31.2518 22.25 31.5111V32.9368H39.1293C39.4002 31.8567 40.5264 25.5775 40.7973 23.8493L39.5428 23.5037C38.9297 25.4623 37.8747 28.9475 37.2332 29.7828C36.3921 30.9061 35.2231 31.2087 33.712 31.2087C32.6428 31.2087 32.0867 31.1653 31.4738 30.8629C30.7895 30.4741 30.6326 29.61 30.6326 27.5217V10.686C30.6326 7.08559 30.9035 6.78316 33.4839 6.52392V5.09814H22.5921V6.52392C25.1725 6.78316 25.4434 7.08559 25.4434 10.686Z" fill="white"/>
<path d="M70.6354 4.06152C72.9164 11.7089 74.9978 19.2554 77.35 26.8595C78.3195 30.0568 78.5904 30.9784 79.788 31.3529C81.2277 31.0361 81.4417 30.3016 81.4417 27.4932V10.5567C81.4417 7.04269 81.0995 6.78347 78.4478 6.52422V5.09845H89.3395V6.52422C86.9445 6.78347 86.6452 7.04269 86.6452 10.5567V17.0663H93.7732V10.5567C93.7732 7.04269 93.431 6.78347 91.0076 6.52422V5.09845H101.857V6.52422C99.2334 6.78347 98.934 7.04269 98.934 10.5567V27.4357C98.934 30.9064 99.2762 31.209 101.785 31.5114V32.9372H90.865V31.5114C93.4454 31.2522 93.7875 30.9064 93.7875 27.4789V19.2266H86.6594V27.4789C86.6594 30.9929 86.9587 31.2522 89.4251 31.5114V32.9947H70.336V31.5401C72.3889 31.2377 72.5742 30.7048 71.9612 28.5302C71.619 27.2053 71.1487 25.4338 70.6924 23.9792H64.0919C63.7782 25.0882 63.3648 26.5428 62.9371 28.2709C62.3526 30.6185 62.5094 31.1369 65.104 31.5401V32.9947H57.4485C56.921 34.7085 56.0655 36.2063 54.697 37.4593C53.414 38.7554 51.4323 39.5908 49.9212 40.0228L49.3937 38.5538C51.247 37.6897 52.2734 36.1631 52.6155 33.9165C52.9577 31.6554 53.0718 28.7894 53.0718 25.1025V10.7007C53.0718 7.25872 52.8151 6.86987 50.4343 6.56744C48.1533 6.82666 47.911 7.28752 47.911 10.7007V27.4068C47.911 30.8345 48.1819 31.2665 50.7195 31.5257V32.9515H39.9133V31.5257C42.4225 31.2665 42.7218 30.8777 42.7218 27.4068V10.7007C42.7218 7.14351 42.4509 6.79786 39.9133 6.53863V5.11285H50.192H50.7195H60.8699V6.53863C58.4463 6.84107 58.2183 7.14351 58.2183 10.7007V25.549C58.2183 27.6661 58.1328 29.6103 57.8048 31.3674C59.1734 31.0073 59.7151 30.1864 60.5705 27.4357L67.1854 5.53051L70.6354 4.06152ZM64.6336 21.7325H70.0367L67.4563 12.1409H67.3422C66.3301 15.4101 65.5602 18.5497 64.6336 21.7325Z" fill="white"/>
<path d="M165.867 38.6834C166.836 38.8131 167.506 39.2162 167.506 40.0948C167.506 40.6996 167.193 41.1604 166.679 41.4342C166.237 41.6934 165.595 41.8086 164.869 41.8086H162.745V41.5062C163.443 41.4485 163.515 41.391 163.515 40.6421V37.1568C163.515 36.4079 163.458 36.3358 162.801 36.2927V35.9902H165.254C165.924 35.9902 166.338 36.0911 166.665 36.3071C166.979 36.5087 167.179 36.8832 167.179 37.3153C167.179 38.1794 166.451 38.525 165.867 38.6545V38.6834ZM164.812 38.5538C165.696 38.5538 166.081 38.1937 166.081 37.4448C166.081 36.7103 165.653 36.3215 165.054 36.3215C164.855 36.3215 164.684 36.3792 164.626 36.4223C164.556 36.4799 164.527 36.5951 164.527 36.8256V38.5393H164.812V38.5538ZM164.542 40.6276C164.542 41.2758 164.712 41.463 165.211 41.463C165.782 41.4485 166.366 41.0886 166.366 40.1811C166.366 39.3171 165.809 38.8994 164.797 38.8994H164.542V40.6276Z" fill="white"/>
<path d="M174.236 38.8416C174.236 40.7713 172.881 41.9523 171.241 41.9523C169.545 41.9523 168.319 40.6561 168.319 38.9279C168.319 37.3725 169.403 35.8604 171.356 35.8604C172.909 35.8604 174.236 37.0557 174.236 38.8416ZM169.502 38.7264C169.502 40.3105 170.243 41.5779 171.413 41.5779C172.296 41.5779 173.051 40.7425 173.051 39.072C173.051 37.2573 172.253 36.206 171.185 36.206C170.257 36.206 169.502 37.1277 169.502 38.7264Z" fill="white"/>
<path d="M180.836 36.278C180.336 36.3068 180.123 36.4652 180.081 36.8108C180.052 37.0701 180.023 37.4157 180.023 38.1214V39.0143C180.023 39.9936 179.881 40.757 179.367 41.3042C178.968 41.7363 178.369 41.9524 177.756 41.9524C177.201 41.9524 176.672 41.8227 176.26 41.5059C175.761 41.1026 175.518 40.4401 175.518 39.3888V37.2285C175.518 36.3932 175.433 36.35 174.777 36.2924V35.9899H177.285V36.2924C176.631 36.35 176.545 36.3932 176.545 37.2285V39.2016C176.545 40.5841 177.044 41.3762 178.042 41.3762C179.168 41.3762 179.61 40.4689 179.61 38.9711V38.1214C179.61 37.4157 179.567 37.0701 179.524 36.782C179.468 36.4652 179.282 36.3068 178.669 36.278V35.9756H180.836V36.278Z" fill="white"/>
<path d="M186.852 41.8947C186.78 41.8947 186.681 41.8803 186.58 41.8803C185.626 41.8372 185.284 41.6067 184.913 41.0306C184.656 40.6418 184.385 40.1233 184.129 39.6625C183.986 39.3888 183.829 39.2881 183.488 39.2881H183.288V40.6418C183.288 41.3762 183.373 41.4627 184.043 41.5202V41.8083H181.506V41.5202C182.176 41.4627 182.276 41.3907 182.276 40.6418V37.1421C182.276 36.4076 182.19 36.3357 181.534 36.278V35.9756H183.901C184.628 35.9756 185.056 36.062 185.412 36.2924C185.768 36.5373 185.996 36.9261 185.996 37.4877C185.996 38.2654 185.498 38.7119 184.885 38.9711C185.027 39.2447 185.354 39.8497 185.626 40.2529C185.94 40.7425 186.125 41.0162 186.325 41.2178C186.524 41.4482 186.695 41.5634 186.895 41.6211L186.852 41.8947ZM183.573 38.9568C183.972 38.9568 184.272 38.8848 184.471 38.7119C184.784 38.4527 184.913 38.0927 184.913 37.6318C184.913 36.6668 184.356 36.3212 183.786 36.3212C183.558 36.3212 183.43 36.3644 183.359 36.4076C183.303 36.4652 183.274 36.5661 183.274 36.7677V38.9568H183.573Z" fill="white"/>
<path d="M190.644 38.6834C191.614 38.8129 192.284 39.2162 192.284 40.0946C192.284 40.6995 191.97 41.1604 191.457 41.434C191.014 41.6933 190.374 41.8085 189.646 41.8085H187.522V41.5061C188.22 41.4484 188.292 41.3909 188.292 40.642V37.1568C188.292 36.4079 188.235 36.3358 187.58 36.2927V35.9902H190.031C190.701 35.9902 191.115 36.091 191.442 36.307C191.757 36.5086 191.956 36.883 191.956 37.3151C191.956 38.1792 191.228 38.5248 190.644 38.6545V38.6834ZM189.59 38.5537C190.473 38.5537 190.858 38.1936 190.858 37.4447C190.858 36.7103 190.43 36.3214 189.831 36.3214C189.632 36.3214 189.461 36.379 189.403 36.4222C189.333 36.4799 189.304 36.5951 189.304 36.8255V38.5393H189.59V38.5537ZM189.304 40.6275C189.304 41.2757 189.475 41.4629 189.975 41.4629C190.545 41.4484 191.129 41.0884 191.129 40.1811C191.129 39.3169 190.573 38.8993 189.561 38.8993H189.304V40.6275Z" fill="white"/>
<path d="M198.998 38.8416C198.998 40.7713 197.644 41.9523 196.005 41.9523C194.308 41.9523 193.082 40.6561 193.082 38.9279C193.082 37.3725 194.166 35.8604 196.118 35.8604C197.672 35.8604 198.998 37.0557 198.998 38.8416ZM194.265 38.7264C194.265 40.3105 195.007 41.5779 196.176 41.5779C197.059 41.5779 197.815 40.7425 197.815 39.072C197.815 37.2573 197.017 36.206 195.947 36.206C195.021 36.206 194.265 37.1277 194.265 38.7264Z" fill="white"/>
<path d="M205.67 36.278C205.2 36.3068 205 36.4364 204.957 36.8397C204.928 37.1132 204.886 37.5309 204.886 38.3374V41.9091H204.516L200.823 37.3581H200.809V39.4608C200.809 40.2528 200.838 40.6561 200.866 40.9297C200.908 41.3475 201.08 41.4914 201.706 41.5347V41.8226H199.583V41.5347C200.081 41.5059 200.281 41.3618 200.324 40.9585C200.352 40.6561 200.395 40.2528 200.395 39.4608V37.5597C200.395 36.9549 200.381 36.8253 200.225 36.6236C200.054 36.3932 199.868 36.3212 199.468 36.2923V36.0044H200.98L204.444 40.1376H204.473V38.3518C204.473 37.5454 204.43 37.1277 204.416 36.8685C204.358 36.4796 204.173 36.3357 203.546 36.3068V36.0187H205.67V36.278Z" fill="white"/>
<path d="M131.566 23.6622C129.799 28.1699 127.732 31.8855 124.795 31.8855C120.333 31.8855 117.325 25.6065 117.325 16.5476C117.325 9.00115 119.933 2.17469 124.595 2.17469C127.318 2.17469 129.342 5.19907 130.626 10.6718L132.023 10.3117C131.823 7.57536 131.708 3.98933 131.638 1.20978C130.526 0.907338 128.002 0.144043 125.408 0.144043C115.756 0.144043 111.009 6.40883 111.009 17.5558C111.009 25.448 113.86 33.9595 124.381 33.9595C126.933 33.9595 129.998 33.0954 131.025 32.7498C131.638 31.0359 132.465 26.4993 132.963 24.2814L131.566 23.6622Z" fill="white"/>
<path d="M125.421 0.157227C128.016 0.157227 130.539 0.920521 131.651 1.22296C131.723 4.00251 131.822 7.58855 132.036 10.3249L130.639 10.6849C129.356 5.21225 127.331 2.18787 124.608 2.18787C119.947 2.18787 117.338 9.01432 117.338 16.5609C117.338 25.6196 120.36 31.8987 124.808 31.8987C127.73 31.8987 129.798 28.1831 131.579 23.6753L132.976 24.2802C132.478 26.5125 131.651 31.0347 131.038 32.7485C130.011 33.1085 126.946 33.9582 124.395 33.9582C113.873 33.9582 111.022 25.4612 111.022 17.5546C111.022 6.422 115.77 0.157227 125.421 0.157227Z" fill="white"/>
<path d="M182.49 27.3346V10.3693C182.49 6.75443 182.76 6.40878 185.341 6.13515V4.68056H174.378V6.13515C176.958 6.39437 177.229 6.75443 177.229 10.3693V27.3346C177.229 30.2006 177.03 30.9927 175.59 31.3383C174.364 30.9638 174.078 30.0709 173.109 26.8449C170.757 19.2695 168.675 11.723 166.408 4.10449L162.987 5.57348L156.386 27.421C155.516 30.215 154.975 31.0214 153.535 31.3526C153.335 31.0791 153.136 30.7766 152.936 30.4742C151.64 28.4291 146.793 21.329 145.096 19.86C145.182 19.8169 147.248 19.0391 147.334 18.996C149.714 17.7429 151.825 15.5971 151.825 11.9823C151.825 9.28914 150.541 7.40251 149.031 6.20715C147.562 5.11262 145.552 4.66616 142.729 4.66616H132.408V6.12074C134.945 6.42318 135.216 6.69681 135.216 10.2253V27.2337C135.216 30.8486 134.903 31.2951 132.251 31.5112V32.9801H143.242V31.5255C140.662 31.3095 140.349 30.863 140.349 27.2482V20.681H140.363C141.518 20.7241 142.016 21.3435 142.559 22.7116C143.528 25.0447 147.234 31.9863 148.147 33.7002C149.644 36.523 153.521 38.5968 159.295 38.1503C160.108 38.064 161.234 37.7039 161.719 37.4158L161.077 35.99C160.022 36.0765 158.725 35.7453 157.541 35.0971C156.786 34.6795 155.845 33.9882 154.876 32.9801H160.849V31.5255C158.269 31.1222 158.112 30.6038 158.697 28.2707C159.124 26.5569 159.538 25.1023 159.851 23.9934H166.437C166.893 25.4479 167.364 27.2049 167.706 28.53C168.319 30.6903 168.134 31.2231 166.081 31.5255V32.9801H174.349H176.53H185.313V31.5255C182.76 31.2519 182.49 30.8198 182.49 27.3346ZM141.075 18.9528H140.363V8.38183C140.363 7.41691 140.434 7.05686 140.633 6.75443C140.862 6.5384 140.962 6.35118 141.775 6.35118C143.742 6.35118 145.937 8.02178 145.937 12.6592C145.937 15.0354 145.396 16.8068 144.283 17.8583C143.47 18.6503 142.544 18.9528 141.075 18.9528ZM160.45 21.7323C161.376 18.5638 162.147 15.4242 163.145 12.1695H163.258L165.838 21.7323H160.45Z" fill="white"/>
<path d="M195.719 20.4341C199.013 20.8374 199.227 21.4711 199.227 24.1499V28.96C199.227 30.1985 199.041 30.9474 198.614 31.2932C198.256 31.6388 197.715 31.7828 197.087 31.7828C192.54 31.7828 190.8 25.2587 190.8 18.3892C190.8 10.4105 193.296 5.83077 196.988 5.83077C199.597 5.83077 201.721 7.58778 202.805 12.3116L204.031 12.0091C203.774 8.97035 203.603 6.72367 203.489 5.18268C202.263 4.83704 200.054 4.13135 197.558 4.13135C190.002 4.13135 184.941 9.2872 184.941 19.2965C184.941 27.7215 188.491 33.583 196.803 33.583C199.482 33.583 202.362 32.7476 204.358 32.1284C204.173 30.8899 204.144 29.5217 204.144 27.9375V23.7321C204.144 21.039 204.358 20.9094 205.983 20.4773V19.066H195.719V20.4341Z" fill="white"/>
<path d="M197.558 4.10449C200.054 4.10449 202.263 4.81018 203.489 5.15582C203.603 6.69681 203.774 8.9435 204.031 11.9823L202.805 12.2847C201.721 7.57532 199.583 5.8039 196.988 5.8039C193.296 5.8039 190.8 10.3837 190.8 18.3623C190.8 25.232 192.54 31.7559 197.087 31.7559C197.701 31.7559 198.243 31.6264 198.614 31.2663C199.041 30.9207 199.227 30.1573 199.227 28.9332V24.123C199.227 21.4298 199.013 20.7962 195.719 20.4074V18.996H205.983V20.4074C204.358 20.8538 204.144 20.9834 204.144 23.6622V27.8674C204.144 29.4516 204.187 30.8198 204.358 32.0583C202.377 32.6777 199.482 33.5129 196.803 33.5129C188.491 33.5129 184.941 27.6514 184.941 19.2264C184.941 9.26034 190.002 4.10449 197.558 4.10449Z" fill="white"/>
<path d="M208.707 30.7192C208.707 31.6553 207.965 32.3898 207.024 32.3898C206.084 32.3898 205.329 31.6553 205.329 30.7192C205.329 29.783 206.084 29.063 207.039 29.063C207.965 29.063 208.707 29.783 208.707 30.7192ZM205.755 30.7192C205.755 31.4537 206.312 32.0442 207.039 32.0442C207.752 32.0585 208.294 31.4537 208.294 30.7336C208.294 29.9991 207.752 29.3942 207.024 29.3942C206.312 29.3942 205.755 29.9847 205.755 30.7192ZM206.767 31.5833H206.383V29.9271C206.54 29.9127 206.74 29.8695 207.01 29.8695C207.324 29.8695 207.467 29.9271 207.566 29.9991C207.666 30.0711 207.738 30.1863 207.738 30.3592C207.738 30.5608 207.58 30.6905 207.395 30.748V30.7623C207.553 30.82 207.637 30.9496 207.68 31.1656C207.738 31.4249 207.765 31.5112 207.794 31.5689H207.395C207.339 31.5112 207.31 31.3673 207.267 31.1656C207.238 30.9929 207.139 30.9064 206.925 30.9064H206.74V31.5833H206.767ZM206.782 30.6471H206.967C207.181 30.6471 207.353 30.5751 207.353 30.4024C207.353 30.244 207.238 30.1431 206.996 30.1431C206.897 30.1431 206.825 30.1575 206.782 30.1575V30.6471Z" fill="white"/>
</g>
<defs>
<clipPath id="clip0_2801_4061">
<rect width="207.921" height="42" fill="white" transform="translate(0.851562)"/>
</clipPath>
</defs>
</svg>
